<?xml version="1.0" standalone="no"?>
<!DOCTYPE svg PUBLIC "-//W3C//DTD SVG 20010904//EN"
 "http://www.w3.org/TR/2001/REC-SVG-20010904/DTD/svg10.dtd">
<svg version="1.0" xmlns="http://www.w3.org/2000/svg"
 width="896.000000pt" height="1280.000000pt" viewBox="0 0 896.000000 1280.000000"
 preserveAspectRatio="xMidYMid meet">
<metadata>
Created by potrace 1.15, written by Peter Selinger 2001-2017
</metadata>
<g transform="translate(0.000000,1280.000000) scale(0.100000,-0.100000)"
fill="#f44336" stroke="none">
<path d="M2915 12471 c-116 -12 -162 -21 -174 -35 -15 -18 -71 -156 -71 -174
0 -9 29 -64 65 -123 36 -58 98 -176 139 -260 190 -395 286 -781 343 -1389 22
-238 26 -1215 5 -1490 -80 -1064 -283 -1904 -622 -2579 -67 -133 -188 -343
-215 -370 -11 -11 -40 -7 -181 27 -267 64 -351 76 -514 75 -439 -4 -837 -147
-1110 -399 -200 -185 -282 -438 -220 -678 29 -114 73 -189 165 -281 145 -145
283 -204 496 -212 347 -14 651 129 1394 657 72 51 140 99 151 107 20 12 36 7
185 -63 664 -310 1248 -523 1864 -679 105 -27 191 -49 193 -50 2 -2 -118 -438
-147 -535 -6 -21 -13 -12 -59 79 -187 368 -463 620 -782 711 -95 27 -275 37
-362 21 -327 -64 -609 -293 -777 -633 -121 -245 -173 -458 -201 -825 -10 -130
-10 -172 4 -297 42 -370 169 -640 428 -911 133 -139 256 -241 508 -422 319
-229 421 -307 531 -405 99 -89 101 -92 95 -127 -3 -20 -29 -179 -57 -353 l-51
-318 53 -61 c30 -33 64 -66 77 -73 19 -10 65 -6 260 21 293 40 288 40 296 8 3
-13 15 -29 27 -35 28 -15 68 11 76 50 4 24 12 31 37 35 102 17 1402 197 1551
215 299 36 598 94 633 122 16 14 13 47 -14 166 -10 45 -23 76 -33 82 -11 6
-107 -6 -282 -34 -145 -24 -286 -47 -312 -50 l-48 -7 3 523 3 523 131 130
c274 274 397 504 454 851 47 293 3 707 -110 1013 -37 101 -87 207 -125 265
-21 31 -20 32 90 41 702 56 1383 445 1683 960 52 88 97 201 130 324 23 86 26
115 26 276 1 177 1 181 -30 268 -40 111 -83 182 -162 268 -171 185 -430 271
-633 209 -103 -31 -137 -51 -374 -218 l-210 -148 -3 -84 c-2 -47 -1 -94 2
-106 3 -11 31 -38 61 -59 102 -70 191 -168 238 -263 l42 -86 0 -125 0 -126
-41 -85 c-128 -262 -445 -436 -866 -474 l-68 -7 0 34 c0 93 64 623 115 957
156 1013 412 1946 768 2805 119 285 190 439 354 764 84 167 153 311 153 320 0
10 -49 66 -110 125 -91 90 -113 107 -132 102 -13 -3 -51 -6 -85 -6 l-63 0 -81
-97 c-632 -762 -1291 -1965 -1979 -3613 -99 -237 -335 -825 -418 -1040 l-40
-105 -49 3 c-68 4 -323 56 -483 98 -257 68 -632 198 -976 339 -195 80 -524
226 -524 233 0 3 26 35 58 71 666 753 1187 1506 1582 2286 378 747 592 1401
656 2008 22 208 15 605 -15 795 -36 237 -109 478 -197 653 -54 109 -170 273
-257 365 -212 224 -463 366 -804 455 -212 56 -347 70 -678 74 -165 2 -336 0
-380 -4z m-1007 -6897 c28 -4 52 -10 52 -15 0 -14 -182 -159 -304 -240 -219
-148 -369 -209 -508 -209 -137 1 -198 40 -206 134 -8 100 45 163 199 235 98
46 177 68 309 86 102 14 371 19 458 9z m1911 -1164 c112 -19 249 -74 351 -143
137 -93 288 -263 376 -423 l46 -84 -71 -282 c-128 -516 -223 -946 -330 -1493
-34 -170 -63 -320 -66 -333 -5 -22 -7 -22 -63 23 -117 95 -239 177 -582 391
-124 77 -315 221 -400 301 -213 201 -342 458 -359 718 -31 489 134 932 431
1155 117 88 229 141 353 166 76 15 231 17 314 4z m2643 -497 c67 -129 99 -222
138 -398 20 -89 31 -327 20 -442 -16 -177 -89 -367 -193 -504 -61 -81 -136
-164 -142 -158 -11 12 43 813 86 1254 11 116 23 238 26 273 3 34 9 62 13 62 3
0 27 -39 52 -87z"/>
</g>
</svg>
